<svg version="1.2" xmlns="http://www.w3.org/2000/svg" viewBox="0 0 20 14" width="20" height="14"><style>.a{fill:#c6cacc}</style><path class="a" d="m16 2.3q0 0 0 0-1.2-1-2.7-1v-0.1q0 0 0 0 1.4-0.3 1.6-0.6 0.1-0.3-0.2-0.3-0.7 0.1-1.2 0.3 0.7-0.4 0.5-0.6-0.7 0-1.5 0.7 0.3-0.5 0.2-0.5-0.4 0.2-0.7 0.5-0.6 0.6-0.9 1.2-1 1.5-1.4 3l-0.1 0.1q-0.6-0.7-1.4-1.2-1-0.6-2.3-1.1-1.5-0.7-3-1.2 0 1.6 1.6 2.5-0.5 0-1.1 0.2 0.1 1.4 2.2 2-0.8 0-1.3 0.5 0.7 1.3 2.4 1.2-0.3 0.2-0.5 0.4-0.3 0.3-0.2 0.8 0.3 0.6 1.3 0.5l0.1 0.1q-0.1 0-0.1 0-1.7 1.7-4.1 1.5-1.5 0-3.2-1.3 1.7 2.3 4.6 3.4 3.2 1 6.4 0.1h0.1q3.1-0.8 5.3-3.5 1-1.4 1.2-2.6 1.7 0 2.4-0.9-0.6 0.1-2.1-0.2v-0.1q0 0 0 0 1.7-0.2 2-1-1.2 0.4-2.4 0-0.2-1.5-1.5-2.8z"/></svg>