<svg version="1.2" xmlns="http://www.w3.org/2000/svg" viewBox="0 0 16 16" width="16" height="16"><style>.a{fill:#c6cacc}</style><path fill-rule="evenodd" class="a" d="m8.6 7.2q0 0 0 0zm7.4-6.1v13.8c0 0.6-0.5 1.1-1.2 1.1h-13.6c-0.7 0-1.2-0.5-1.2-1.1v-13.8c0-0.6 0.5-1.1 1.2-1.1h13.6c0.7 0 1.2 0.5 1.2 1.1zm-11.1 5.1h-2.5v7.2h2.5zm0.1-2.2c0-0.8-0.5-1.3-1.3-1.3-0.9 0-1.4 0.5-1.4 1.3 0 0.7 0.5 1.2 1.3 1.2h0.1c0.8 0 1.3-0.5 1.3-1.2zm8.6 5.3c0-2.2-1.2-3.3-2.8-3.3-1.3 0-1.9 0.7-2.2 1.2v-1h-2.4c0 0.7 0 7.2 0 7.2h2.4v-4c0-0.2 0-0.4 0.1-0.6 0.2-0.4 0.6-0.9 1.2-0.9 0.9 0 1.3 0.7 1.3 1.7v3.8h2.4z"/></svg>